3DGaitModel2392_coordinates
version=1
nRows=24
nColumns=24
inDegrees=yes

# SIMM Motion File Header:
name 3DGaitModel2392_coordinates
datacolumns 24
datarows 24
otherdata 1
range 1.64244753 1.64584743
endheader
time pelvis_tilt pelvis_list pelvis_rotation pelvis_tx pelvis_ty pelvis_tz hip_flexion_r hip_adduction_r hip_rotation_r knee_angle_r ankle_angle_r subtalar_angle_r mtp_angle_r hip_flexion_l hip_adduction_l hip_rotation_l knee_angle_l ankle_angle_l subtalar_angle_l mtp_angle_l lumbar_extension lumbar_bending lumbar_rotation
1.64244753	0.00000000	0.00000000	-0.00000000	-0.01467805	1.07048896	-0.00000000	-0.00000000	0.00000000	-0.00000000	2645.12550922	-50846.60462939	-0.00000000	0.00000000	-0.00000000	-0.00000000	0.00000000	0.00000000	-0.00000000	0.00000000	-0.00000000	-0.00000000	-0.00000000	-0.00000000
1.64260231	0.00000000	0.00000000	-0.00000000	-0.01447747	1.07032649	-0.00000000	-0.00000000	0.00000000	-0.00000000	2646.68589003	-50859.12246266	-0.00000000	0.00000000	-0.00000000	-0.00000000	0.00000000	0.00000000	-0.00000000	0.00000000	-0.00000000	-0.00000000	-0.00000000	-0.00000000
1.64275708	0.00000000	0.00000000	-0.00000000	-0.01423699	1.07020122	-0.00000000	-0.00000000	0.00000000	-0.00000000	2648.15376457	-50871.27480886	-0.00000000	0.00000000	-0.00000000	-0.00000000	0.00000000	0.00000000	-0.00000000	0.00000000	-0.00000000	-0.00000000	-0.00000000	-0.00000000
1.64291186	0.00000000	0.00000000	-0.00000000	-0.01396743	1.07010921	-0.00000000	-0.00000000	0.00000000	-0.00000000	2649.49570236	-50882.96267419	-0.00000000	0.00000000	-0.00000000	-0.00000000	0.00000000	0.00000000	-0.00000000	0.00000000	-0.00000000	-0.00000000	-0.00000000	-0.00000000
1.64306663	0.00000000	0.00000000	-0.00000000	-0.01367870	1.07004499	-0.00000000	-0.00000000	0.00000000	-0.00000000	2650.69535608	-50894.18019965	-0.00000000	0.00000000	-0.00000000	-0.00000000	0.00000000	0.00000000	-0.00000000	0.00000000	-0.00000000	-0.00000000	-0.00000000	-0.00000000
1.64325545	0.00000000	0.00000000	-0.00000000	-0.01331206	1.06999626	-0.00000000	-0.00000000	0.00000000	-0.00000000	2651.95842904	-50907.30405987	-0.00000000	0.00000000	-0.00000000	-0.00000000	0.00000000	0.00000000	-0.00000000	0.00000000	-0.00000000	-0.00000000	-0.00000000	-0.00000000
1.64344426	0.00000000	0.00000000	-0.00000000	-0.01294006	1.06997161	-0.00000000	-0.00000000	0.00000000	-0.00000000	2653.00077170	-50919.94581265	-0.00000000	0.00000000	-0.00000000	-0.00000000	0.00000000	0.00000000	-0.00000000	0.00000000	-0.00000000	-0.00000000	-0.00000000	-0.00000000
1.64369953	0.00000000	0.00000000	-0.00000000	-0.01244393	1.06996272	-0.00000000	-0.00000000	0.00000000	-0.00000000	2654.06219859	-50936.54571335	-0.00000000	0.00000000	-0.00000000	-0.00000000	0.00000000	0.00000000	-0.00000000	0.00000000	-0.00000000	-0.00000000	-0.00000000	-0.00000000
1.64395480	0.00000000	0.00000000	-0.00000000	-0.01197220	1.06996592	-0.00000000	-0.00000000	0.00000000	-0.00000000	2654.72529375	-50952.91746050	-0.00000000	0.00000000	-0.00000000	-0.00000000	0.00000000	0.00000000	-0.00000000	0.00000000	-0.00000000	-0.00000000	-0.00000000	-0.00000000
1.64412970	0.00000000	0.00000000	-0.00000000	-0.01167230	1.06996583	-0.00000000	-0.00000000	0.00000000	-0.00000000	2654.94981179	-50964.17737336	-0.00000000	0.00000000	-0.00000000	-0.00000000	0.00000000	0.00000000	-0.00000000	0.00000000	-0.00000000	-0.00000000	-0.00000000	-0.00000000
1.64426014	0.00000000	0.00000000	-0.00000000	-0.01146522	1.06996005	-0.00000000	-0.00000000	0.00000000	-0.00000000	2654.99725976	-50972.66361353	-0.00000000	0.00000000	-0.00000000	-0.00000000	0.00000000	0.00000000	-0.00000000	0.00000000	-0.00000000	-0.00000000	-0.00000000	-0.00000000
1.64432691	0.00000000	0.00000000	-0.00000000	-0.01136571	1.06995407	-0.00000000	-0.00000000	0.00000000	-0.00000000	2654.98303227	-50977.04794148	-0.00000000	0.00000000	-0.00000000	-0.00000000	0.00000000	0.00000000	-0.00000000	0.00000000	-0.00000000	-0.00000000	-0.00000000	-0.00000000
1.64439368	0.00000000	0.00000000	-0.00000000	-0.01127111	1.06994545	-0.00000000	-0.00000000	0.00000000	-0.00000000	2654.94375717	-50981.46372626	-0.00000000	0.00000000	-0.00000000	-0.00000000	0.00000000	0.00000000	-0.00000000	0.00000000	-0.00000000	-0.00000000	-0.00000000	-0.00000000
1.64450234	0.00000000	0.00000000	-0.00000000	-0.01112858	1.06992453	-0.00000000	-0.00000000	0.00000000	-0.00000000	2654.82943753	-50988.72147651	-0.00000000	0.00000000	-0.00000000	-0.00000000	0.00000000	0.00000000	-0.00000000	0.00000000	-0.00000000	-0.00000000	-0.00000000	-0.00000000
1.64463464	0.00000000	0.00000000	-0.00000000	-0.01097608	1.06988478	-0.00000000	-0.00000000	0.00000000	-0.00000000	2654.61567337	-50997.67745873	-0.00000000	0.00000000	-0.00000000	-0.00000000	0.00000000	0.00000000	-0.00000000	0.00000000	-0.00000000	-0.00000000	-0.00000000	-0.00000000
1.64478607	0.00000000	0.00000000	-0.00000000	-0.01083249	1.06981540	-0.00000000	-0.00000000	0.00000000	-0.00000000	2654.29444222	-51008.06641408	-0.00000000	0.00000000	-0.00000000	-0.00000000	0.00000000	0.00000000	-0.00000000	0.00000000	-0.00000000	-0.00000000	-0.00000000	-0.00000000
1.64493751	0.00000000	0.00000000	-0.00000000	-0.01072350	1.06971587	-0.00000000	-0.00000000	0.00000000	-0.00000000	2653.92964062	-51018.54325650	-0.00000000	0.00000000	-0.00000000	-0.00000000	0.00000000	0.00000000	-0.00000000	0.00000000	-0.00000000	-0.00000000	-0.00000000	-0.00000000
1.64508894	0.00000000	0.00000000	-0.00000000	-0.01064822	1.06958318	-0.00000000	-0.00000000	0.00000000	-0.00000000	2653.56802260	-51029.02428761	-0.00000000	0.00000000	-0.00000000	-0.00000000	0.00000000	0.00000000	-0.00000000	0.00000000	-0.00000000	-0.00000000	-0.00000000	-0.00000000
1.64524038	0.00000000	0.00000000	-0.00000000	-0.01060323	1.06941682	-0.00000000	-0.00000000	0.00000000	-0.00000000	2653.25590864	-51039.42743191	-0.00000000	0.00000000	-0.00000000	-0.00000000	0.00000000	0.00000000	-0.00000000	0.00000000	-0.00000000	-0.00000000	-0.00000000	-0.00000000
1.64539181	0.00000000	0.00000000	-0.00000000	-0.01058329	1.06921868	-0.00000000	-0.00000000	0.00000000	-0.00000000	2653.03171986	-51049.69640806	-0.00000000	0.00000000	-0.00000000	-0.00000000	0.00000000	0.00000000	-0.00000000	0.00000000	-0.00000000	-0.00000000	-0.00000000	-0.00000000
1.64554325	0.00000000	0.00000000	-0.00000000	-0.01058240	1.06899222	-0.00000000	-0.00000000	0.00000000	-0.00000000	2652.92237628	-51059.81201232	-0.00000000	0.00000000	-0.00000000	-0.00000000	0.00000000	0.00000000	-0.00000000	0.00000000	-0.00000000	-0.00000000	-0.00000000	-0.00000000
1.64564464	0.00000000	0.00000000	-0.00000000	-0.01058951	1.06882684	-0.00000000	-0.00000000	0.00000000	-0.00000000	2652.92171228	-51066.50590577	-0.00000000	0.00000000	-0.00000000	-0.00000000	0.00000000	0.00000000	-0.00000000	0.00000000	-0.00000000	-0.00000000	-0.00000000	-0.00000000
1.64574604	0.00000000	0.00000000	-0.00000000	-0.01060088	1.06865193	-0.00000000	-0.00000000	0.00000000	-0.00000000	2652.98259622	-51073.14891687	-0.00000000	0.00000000	-0.00000000	-0.00000000	0.00000000	0.00000000	-0.00000000	0.00000000	-0.00000000	-0.00000000	-0.00000000	-0.00000000
1.64584743	0.00000000	0.00000000	-0.00000000	-0.01061501	1.06846877	-0.00000000	-0.00000000	0.00000000	-0.00000000	2653.10657740	-51079.75636242	-0.00000000	0.00000000	-0.00000000	-0.00000000	0.00000000	0.00000000	-0.00000000	0.00000000	-0.00000000	-0.00000000	-0.00000000	-0.00000000
